<?xml version="1.0" encoding="iso-8859-1"?>
<!-- Generator: Adobe Illustrator 19.0.0, SVG Export Plug-In . SVG Version: 6.00 Build 0)  -->
<svg version="1.1" id="Capa_1" xmlns="http://www.w3.org/2000/svg" xmlns:xlink="http://www.w3.org/1999/xlink" x="0px" y="0px"
	 viewBox="0 0 512 512" style="enable-background:new 0 0 512 512;" xml:space="preserve">
<g>
	<g>
		<path d="M256,0C145.863,0,56.251,89.347,56.251,199.175v36.735h34.44v-36.735c0-90.834,74.16-164.735,165.309-164.735
			s165.309,74.154,165.309,165.309v36.161h34.439v-36.161C455.749,89.606,366.137,0,256,0z"/>
	</g>
</g>
<g>
	<g>
		<path d="M421.309,378.834v1.722c0,37.981-30.898,68.879-68.879,68.879h-47.641v34.44h47.641
			c56.969,0,103.318-46.35,103.318-103.318v-1.722H421.309z"/>
	</g>
</g>
<g>
	<g>
		<path d="M274.942,414.422H256c-26.903,0-48.789,21.886-48.789,48.789S229.097,512,256,512h18.942
			c26.897,0,48.789-21.886,48.789-48.789S301.845,414.422,274.942,414.422z M274.942,477.561H256c-7.646,0-14.35-6.704-14.35-14.35
			s6.704-14.35,14.35-14.35h18.942c7.646,0,14.35,6.704,14.35,14.35C289.291,471.258,282.989,477.561,274.942,477.561z"/>
	</g>
</g>
<g>
	<g>
		<path d="M72.323,253.13h37.309v-34.439H72.323c-28.481,0-51.659,23.178-51.659,51.659v74.619
			c0,28.487,23.178,51.659,51.659,51.659h36.735v-34.445H72.323c-9.494,0-17.22-7.726-17.22-17.22v-74.619
			C55.103,260.85,62.829,253.13,72.323,253.13z"/>
	</g>
</g>
<g>
	<g>
		<path d="M169.901,207.211h-60.269c-9.511,0-17.22,7.709-17.22,17.22v165.883c0,9.448,7.611,17.128,17.059,17.22l60.269,0.574
			c0.052,0,0.109,0,0.161,0c4.54,0,8.891-1.791,12.117-4.982c3.266-3.237,5.103-7.64,5.103-12.237V224.43
			C187.121,214.919,179.412,207.211,169.901,207.211z M152.682,373.502l-25.83-0.247V241.65h25.83V373.502z"/>
	</g>
</g>
<g>
	<g>
		<path d="M439.677,218.696h-37.309v34.439h37.309c9.494,0,17.22,7.72,17.22,17.214v74.619c0,9.494-7.726,17.22-17.22,17.22h-36.735
			v34.439h36.735c28.487,0,51.659-23.172,51.659-51.653v-74.619C491.336,241.868,468.164,218.696,439.677,218.696z"/>
	</g>
</g>
<g>
	<g>
		<path d="M402.942,207.211h-60.843c-9.511,0-17.22,7.709-17.22,17.22v165.883c0,9.511,7.709,17.22,17.22,17.22h60.843
			c9.511,0,17.22-7.709,17.22-17.22V224.43C420.161,214.919,412.453,207.211,402.942,207.211z M385.722,373.094h-26.404V241.65
			h26.404V373.094z"/>
	</g>
</g>
<g>
</g>
<g>
</g>
<g>
</g>
<g>
</g>
<g>
</g>
<g>
</g>
<g>
</g>
<g>
</g>
<g>
</g>
<g>
</g>
<g>
</g>
<g>
</g>
<g>
</g>
<g>
</g>
<g>
</g>
</svg>
