<svg width="31" height="26" viewBox="0 0 31 26" fill="none" xmlns="http://www.w3.org/2000/svg">
<path d="M12.5 12C12.5 13.3112 11.2319 14.5 9.5 14.5C7.76806 14.5 6.5 13.3112 6.5 12C6.5 10.6888 7.76806 9.5 9.5 9.5C11.2319 9.5 12.5 10.6888 12.5 12Z" stroke="black"/>
<path d="M4.19027 21.9969C7.69027 21.9969 3.00008 19 9.50001 19C16.0766 19 11.5001 22.5 15.1903 21.9969C15 17.5 14 16.9944 9.69027 16.9969C4 17 3.99999 20 4.19027 21.9969Z" fill="white"/>
<path d="M12.5 12C12.5 13.3112 11.2319 14.5 9.5 14.5C7.76806 14.5 6.5 13.3112 6.5 12C6.5 10.6888 7.76806 9.5 9.5 9.5C11.2319 9.5 12.5 10.6888 12.5 12Z" stroke="white"/>
<rect x="18" y="10" width="9" height="2" fill="white"/>
<rect x="18" y="15" width="9" height="2" fill="white"/>
<rect x="18" y="20" width="9" height="2" fill="white"/>
<rect x="0.5" y="3.5" width="30" height="22" rx="1.5" stroke="white"/>
<rect x="10.5" y="0.5" width="10" height="6" rx="2.5" stroke="white"/>
</svg>
