<?xml version="1.0" encoding="iso-8859-1"?>
<!-- Generator: Adobe Illustrator 19.0.0, SVG Export Plug-In . SVG Version: 6.00 Build 0)  -->
<svg version="1.1" id="Capa_1" xmlns="http://www.w3.org/2000/svg" xmlns:xlink="http://www.w3.org/1999/xlink" x="0px" y="0px"
	 viewBox="0 0 477.867 477.867" style="enable-background:new 0 0 477.867 477.867;" xml:space="preserve">
<g>
	<g>
		<path d="M155.529,322.236c36.88-29.342,42.99-83.025,13.648-119.905c-29.342-36.88-83.026-42.99-119.905-13.648
			c-36.88,29.342-42.99,83.025-13.648,119.905c4.019,5.051,8.597,9.63,13.648,13.648C18.716,340.753,0.038,373.872,0,409.6v51.2
			c0,9.426,7.641,17.067,17.067,17.067h170.667c9.426,0,17.067-7.641,17.067-17.067v-51.2
			C204.762,373.872,186.084,340.753,155.529,322.236z M102.4,204.8c28.277,0,51.2,22.923,51.2,51.2c0,28.277-22.923,51.2-51.2,51.2
			S51.2,284.277,51.2,256C51.2,227.723,74.123,204.8,102.4,204.8z M170.667,443.733H34.133V409.6
			c0-37.703,30.564-68.267,68.267-68.267s68.267,30.564,68.267,68.267V443.733z"/>
	</g>
</g>
<g>
	<g>
		<path d="M428.595,322.236c36.88-29.342,42.99-83.025,13.648-119.905c-29.342-36.88-83.026-42.99-119.905-13.648
			c-36.88,29.342-42.99,83.025-13.648,119.905c4.019,5.051,8.597,9.63,13.648,13.648c-30.555,18.517-49.234,51.636-49.271,87.364
			v51.2c0,9.426,7.641,17.067,17.067,17.067H460.8c9.426,0,17.067-7.641,17.067-17.067v-51.2
			C477.829,373.872,459.151,340.753,428.595,322.236z M375.467,204.8c28.277,0,51.2,22.923,51.2,51.2
			c0,28.277-22.923,51.2-51.2,51.2c-28.277,0-51.2-22.923-51.2-51.2C324.267,227.723,347.19,204.8,375.467,204.8z M443.733,443.733
			H307.2V409.6c0-37.703,30.564-68.267,68.267-68.267c37.703,0,68.267,30.564,68.267,68.267V443.733z"/>
	</g>
</g>
<g>
	<g>
		<path d="M409.6,0H170.667C161.241,0,153.6,7.641,153.6,17.067v102.4c0,9.426,7.641,17.067,17.067,17.067h27.529l-9.591,28.74
			c-2.979,8.943,1.856,18.607,10.799,21.585c1.74,0.58,3.563,0.875,5.397,0.875c2.647-0.004,5.257-0.617,7.629-1.792l98.799-49.408
			H409.6c9.426,0,17.067-7.641,17.067-17.067v-102.4C426.667,7.641,419.026,0,409.6,0z M392.533,102.4H307.2
			c-2.647-0.003-5.259,0.611-7.629,1.792l-65.553,32.785l4.045-12.117c2.979-8.943-1.856-18.607-10.799-21.585
			c-1.74-0.58-3.563-0.875-5.397-0.875h-34.133V34.133h204.8V102.4z"/>
	</g>
</g>
<g>
</g>
<g>
</g>
<g>
</g>
<g>
</g>
<g>
</g>
<g>
</g>
<g>
</g>
<g>
</g>
<g>
</g>
<g>
</g>
<g>
</g>
<g>
</g>
<g>
</g>
<g>
</g>
<g>
</g>
</svg>
