<?xml version="1.0" encoding="iso-8859-1"?>
<!-- Generator: Adobe Illustrator 16.0.0, SVG Export Plug-In . SVG Version: 6.00 Build 0)  -->
<!DOCTYPE svg PUBLIC "-//W3C//DTD SVG 1.1//EN" "http://www.w3.org/Graphics/SVG/1.1/DTD/svg11.dtd">
<svg version="1.1" id="Capa_1" xmlns="http://www.w3.org/2000/svg" xmlns:xlink="http://www.w3.org/1999/xlink" x="0px" y="0px"
	 width="457px" height="457px" viewBox="0 0 457 457" style="enable-background:new 0 0 457 457;" xml:space="preserve">
<g>
	<g>
		<path d="M256.86,457h94.358c6.903,0,12.5-5.597,12.5-12.5v-432c0-6.903-5.597-12.5-12.5-12.5H105.782
			c-6.903,0-12.5,5.597-12.5,12.5v432c0,6.903,5.597,12.5,12.5,12.5h94.361c6.903,0,12.5-5.597,12.5-12.5v-83.988h31.717V444.5
			C244.36,451.403,249.957,457,256.86,457z M200.144,335.512c-6.903,0-12.5,5.598-12.5,12.5V432h-69.361V25H338.72v407h-69.358
			v-83.988c0-6.902-5.598-12.5-12.5-12.5H200.144z"/>
		<path d="M192.213,193.163h-31.822c-12.406,0-22.5,10.094-22.5,22.5v31.823c0,12.406,10.094,22.5,22.5,22.5h31.822
			c12.406,0,22.5-10.094,22.5-22.5v-31.823C214.713,203.257,204.62,193.163,192.213,193.163z M189.713,244.986h-26.822v-26.823
			h26.822V244.986z"/>
		<path d="M192.213,68.854h-31.822c-12.406,0-22.5,10.094-22.5,22.5v31.823c0,12.406,10.094,22.5,22.5,22.5h31.822
			c12.406,0,22.5-10.094,22.5-22.5V91.354C214.713,78.947,204.62,68.854,192.213,68.854z M189.713,120.677h-26.822V93.854h26.822
			V120.677z"/>
		<path d="M296.61,269.986c12.405,0,22.5-10.094,22.5-22.5v-31.823c0-12.406-10.095-22.5-22.5-22.5h-31.822
			c-12.406,0-22.5,10.094-22.5,22.5v31.823c0,12.406,10.094,22.5,22.5,22.5H296.61z M267.288,218.163h26.822v26.823h-26.822V218.163
			z"/>
		<path d="M264.788,145.677h31.822c12.405,0,22.5-10.094,22.5-22.5V91.354c0-12.406-10.095-22.5-22.5-22.5h-31.822
			c-12.406,0-22.5,10.094-22.5,22.5v31.823C242.288,135.583,252.381,145.677,264.788,145.677z M267.288,93.854h26.822v26.823
			h-26.822V93.854z"/>
	</g>
</g>
<g>
</g>
<g>
</g>
<g>
</g>
<g>
</g>
<g>
</g>
<g>
</g>
<g>
</g>
<g>
</g>
<g>
</g>
<g>
</g>
<g>
</g>
<g>
</g>
<g>
</g>
<g>
</g>
<g>
</g>
</svg>
