<?xml version="1.0" encoding="iso-8859-1"?>
<!-- Generator: Adobe Illustrator 19.0.0, SVG Export Plug-In . SVG Version: 6.00 Build 0)  -->
<svg version="1.1" id="Capa_1" xmlns="http://www.w3.org/2000/svg" xmlns:xlink="http://www.w3.org/1999/xlink" x="0px" y="0px"
	 viewBox="0 0 477.867 477.867" style="enable-background:new 0 0 477.867 477.867;" xml:space="preserve">
<g>
	<g>
		<path d="M313.293,103.987l27.17-81.527c2.979-8.943-1.856-18.607-10.799-21.585C327.923,0.295,326.101,0,324.267,0H153.6
			c-9.426-0.002-17.069,7.637-17.071,17.063c0,1.834,0.295,3.657,0.875,5.397l27.17,81.527C70.663,115.73,0.145,195.491,0,290.133
			v102.4c0.056,47.105,38.228,85.277,85.333,85.333h307.2c47.105-0.056,85.277-38.228,85.333-85.333v-102.4
			C477.721,195.491,407.204,115.73,313.293,103.987z M300.595,34.133L277.828,102.4h-77.79l-22.767-68.267H300.595z
			 M443.733,392.533c0,28.277-22.923,51.2-51.2,51.2h-307.2c-28.277,0-51.2-22.923-51.2-51.2v-102.4
			c0.103-84.788,68.812-153.497,153.6-153.6h102.4c84.788,0.103,153.497,68.812,153.6,153.6V392.533z"/>
	</g>
</g>
<g>
	<g>
		<path d="M256,273.067h-34.133c-9.426,0-17.067-7.641-17.067-17.067v-17.067c0-9.426,7.641-17.067,17.067-17.067H256
			c9.426,0,17.067,7.641,17.067,17.067S280.708,256,290.133,256s17.067-7.641,17.067-17.067c0-28.277-22.923-51.2-51.2-51.2v-17.067
			c0-9.426-7.641-17.067-17.067-17.067s-17.067,7.641-17.067,17.067v17.067c-28.277,0-51.2,22.923-51.2,51.2V256
			c0,28.277,22.923,51.2,51.2,51.2H256c9.426,0,17.067,7.641,17.067,17.067v17.067c0,9.426-7.641,17.067-17.067,17.067h-34.133
			c-9.426,0-17.067-7.641-17.067-17.067s-7.641-17.067-17.067-17.067c-9.426,0-17.067,7.641-17.067,17.067
			c0,28.277,22.923,51.2,51.2,51.2V409.6c0,9.426,7.641,17.067,17.067,17.067S256,419.026,256,409.6v-17.067
			c28.277,0,51.2-22.923,51.2-51.2v-17.067C307.2,295.99,284.277,273.067,256,273.067z"/>
	</g>
</g>
<g>
</g>
<g>
</g>
<g>
</g>
<g>
</g>
<g>
</g>
<g>
</g>
<g>
</g>
<g>
</g>
<g>
</g>
<g>
</g>
<g>
</g>
<g>
</g>
<g>
</g>
<g>
</g>
<g>
</g>
</svg>
