<svg xmlns="http://www.w3.org/2000/svg" width="23" height="23" viewBox="0 0 23 23"><g><g><path fill="#112f51" d="M9.536 19.321v2.384a.795.795 0 0 1-.795.795H.795A.795.795 0 0 1 0 21.705v-2.384a4.762 4.762 0 0 1 2.294-4.067 3.973 3.973 0 1 1 4.948 0 4.762 4.762 0 0 1 2.294 4.067zM2.384 12.17a2.384 2.384 0 1 0 4.768 0 2.384 2.384 0 0 0-4.768 0zm5.562 8.74v-1.589a3.179 3.179 0 0 0-6.357 0v1.59zm14.304-1.589v2.384a.795.795 0 0 1-.795.795H13.51a.795.795 0 0 1-.795-.795v-2.384a4.762 4.762 0 0 1 2.294-4.067 3.973 3.973 0 1 1 4.947 0 4.762 4.762 0 0 1 2.295 4.067zm-7.152-7.151a2.384 2.384 0 1 0 4.768 0 2.384 2.384 0 0 0-4.768 0zm5.563 8.74v-1.589a3.179 3.179 0 0 0-6.358 0v1.59zm-.795-19.865v4.767a.795.795 0 0 1-.795.795h-4.58l-4.6 2.3a.803.803 0 0 1-.607.043.795.795 0 0 1-.502-1.005l.446-1.338H7.946a.795.795 0 0 1-.794-.795V1.045c0-.44.356-.795.794-.795h11.125c.44 0 .795.356.795.795zm-1.59 3.973V1.839H8.742v3.179h1.59a.796.796 0 0 1 .753 1.046l-.188.564L13.948 5.1a.794.794 0 0 1 .355-.083z"/></g></g></svg>